<svg xmlns="http://www.w3.org/2000/svg" xmlns:xlink="http://www.w3.org/1999/xlink" version="1.1" x="0px" y="0px" style="enable-background:new 0 0 500 500;" xml:space="preserve" viewBox="151.37 94 194.97 311.97">
<style type="text/css">
	.st0{fill:#FFFFFF;}
	.st1{fill:#38894D;}
	.st2{fill:#22C55E;}
	.st3{display:none;fill:#111111;}
	.st4{display:none;fill:#22C55E;}
	.st5{fill:#111111;}
</style>
<g id="Guides">
</g>
<g id="icon_1">
</g>
<g id="Icon_2">
	<rect y="0" class="st3" width="500" height="500"/>
	<path class="st1" d="M213.6,247.9c-1.1-0.6-25.9,22.4-20.1,42.6c5.2,18.3,32.4,23.2,35.8,23.7c24.7,4.1,55.2-8.1,65.8-33.7   c6-14.4,3.6-28.1,2-34.6c-13.9,7.6-26.2,13.2-35.6,17.2c-26.5,11.2-33.9,10.9-39.4,7.9c-4.4-2.4-9.8-7.7-10.5-14.1   C211,251.8,214,248.2,213.6,247.9z"/>
	<path class="st2" d="M247.2,405.9c3.3-1.3-6.6-18.8,0-42.8c5.4-19.8,18.7-31.9,22.4-35.2c3.6-3.1,13.8-11.7,29-15.3   c9.1-2.1,10.9-0.3,19.4-3.1c6.3-2,17.4-5.6,23.9-16.8c7.2-12.4,3.6-25.3,3.1-27c-0.8-2.6-3.7-11.9-12.7-17.8   c-7.7-5.1-15.6-4.9-23.9-4.6c-6.2,0.2-17.7,1.4-31.6,8.2c-21.8,10.6-33.7,27.2-38.2,33.6c-5.7,8.1-20,28.7-19.9,57.1   C218.9,378.5,242.8,407.6,247.2,405.9z"/>
	<path class="st2" d="M227.4,313.1c0.2-0.5-20.6-2.7-27.5-17.3c-6.6-13.9,3.5-30.6,4.1-31.6c5-8.1,12-12.8,42.8-25   c34.9-13.8,41.3-13.7,54-21.9c7.8-5,23.9-15.7,31.6-32.1c12.1-25.9,0.8-61.5-25-91.2c0.1,4.7-0.3,11.8-3.6,19.4   c-6.2,14.6-19,21.7-39.7,32.1c-43,21.5-45.6,19.4-62.2,30.1c-16.4,10.6-30.6,19.8-40.3,37.7c-1.6,2.9-19.7,38-3.6,66.7   C176.6,313.1,227.1,313.9,227.4,313.1z"/>
</g>
<g id="Icon_3">
</g>
<g id="Logo_1">
</g>
<g id="Logo_2">
</g>
<g id="Logo_3">
</g>
</svg>